<?xml version="1.0" standalone="no"?><svg xmlns:xlink="http://www.w3.org/1999/xlink" xmlns="http://www.w3.org/2000/svg" viewBox="0 0 1000 416.66666666666663" preserveAspectRatio="xMaxYMax slice"><g transform="scale(0.9392846408175533)"><rect x="0" y="0" width="1153.36" height="443.6" fill="#ffffff"/><rect x="0" y="0" width="88.72" height="88.72" fill="#00B4CC"/><path d="M 0 88.72 A 88.72 88.72 0 0 0 88.72 0 L 0 0" fill="#343838"/><rect x="88.72" y="0" width="88.72" height="88.72" fill="#ffffff"/><rect x="88.72" y="0" width="44.36" height="44.36" fill="#00B4CC"/><path d="M 88.72 0 A 44.36 44.36 0 0 1  133.07999999999998 44.36 L 88.72 0 A 44.36 44.36 0 0 0 133.07999999999998 44.36" fill="#005F6B"/><rect x="133.08" y="0" width="44.36" height="44.36" fill="#005F6B"/><path d="M 133.08 44.36 A 44.36 44.36 0 0 1  177.44 0 L 133.08 44.36 A 44.36 44.36 0 0 0 177.44 0" fill="#005F6B"/><rect x="88.72" y="44.36" width="44.36" height="44.36" fill="#00B4CC"/><path d="M 88.72 44.36 A 44.36 44.36 0 0 0 133.07999999999998 88.72 L 133.07999999999998 44.36" fill="#008C9E"/><rect x="133.08" y="44.36" width="44.36" height="44.36" fill="#005F6B"/><path d="M 133.08 44.36 A 44.36 44.36 0 0 1 177.44 88.72 L 133.08 88.72" fill="#008C9E"/><rect x="177.44" y="0" width="88.72" height="88.72" fill="#ffffff"/><rect x="177.44" y="0" width="44.36" height="44.36" fill="#008C9E"/><path d="M 177.44 44.36 A 44.36 44.36 0 0 0 221.8 0 L 177.44 0" fill="#008C9E"/><rect x="221.8" y="0" width="44.36" height="44.36" fill="#00DFFC"/><path d="M 221.8 44.36 A 44.36 44.36 0 0 1  266.16 0 L 221.8 44.36 A 44.36 44.36 0 0 0 266.16 0" fill="#00B4CC"/><rect x="177.44" y="44.36" width="44.36" height="44.36" fill="#008C9E"/><path d="M 177.44 88.72 A 44.36 44.36 0 0 1  221.8 44.36 L 177.44 88.72 A 44.36 44.36 0 0 0 221.8 44.36" fill="#00B4CC"/><rect x="221.8" y="44.36" width="44.36" height="44.36" fill="#008C9E"/><path d="M 221.8 88.72 A 44.36 44.36 0 0 0 266.16 44.36 L 221.8 44.36" fill="#343838"/><rect x="266.16" y="0" width="88.72" height="88.72" fill="#008C9E"/><path d="M 266.16 0 A 88.72 88.72 0 0 0 354.88 88.72 L 354.88 0" fill="#00B4CC"/><rect x="354.88" y="0" width="88.72" height="88.72" fill="#008C9E"/><path d="M 354.88 88.72 A 88.72 88.72 0 0 0 443.6 0 L 354.88 0" fill="#008C9E"/><rect x="443.6" y="0" width="88.72" height="88.72" fill="#00B4CC"/><path d="M 443.6 0 A 88.72 88.72 0 0 1 532.32 88.72 L 443.6 88.72" fill="#00B4CC"/><rect x="532.3199999999999" y="0" width="88.72" height="88.72" fill="#ffffff"/><rect x="532.32" y="0" width="44.36" height="44.36" fill="#00DFFC"/><path d="M 532.32 44.36 A 44.36 44.36 0 0 0 576.6800000000001 0 L 532.32 0" fill="#005F6B"/><rect x="576.68" y="0" width="44.36" height="44.36" fill="#005F6B"/><path d="M 576.68 0 A 44.36 44.36 0 0 1  621.04 44.36 L 576.68 0 A 44.36 44.36 0 0 0 621.04 44.36" fill="#005F6B"/><rect x="532.32" y="44.36" width="44.36" height="44.36" fill="#00B4CC"/><path d="M 532.32 88.72 A 44.36 44.36 0 0 1  576.6800000000001 44.36 L 576.6800000000001 88.72" fill="#00DFFC"/><rect x="576.68" y="44.36" width="44.36" height="44.36" fill="#005F6B"/><path d="M 576.68 44.36 A 44.36 44.36 0 0 0 621.04 88.72 L 621.04 44.36" fill="#00DFFC"/><rect x="621.04" y="0" width="88.72" height="88.72" fill="#00B4CC"/><path d="M 621.04 0 A 88.72 88.72 0 0 1  709.76 88.72 L 621.04 0 A 88.72 88.72 0 0 0 709.76 88.72" fill="#00B4CC"/><rect x="709.76" y="0" width="88.72" height="88.72" fill="#005F6B"/><path d="M 709.76 0 A 88.72 88.72 0 0 0 798.48 88.72 L 798.48 0" fill="#008C9E"/><rect x="798.48" y="0" width="88.72" height="88.72" fill="#ffffff"/><rect x="798.48" y="0" width="44.36" height="44.36" fill="#00B4CC"/><path d="M 798.48 44.36 A 44.36 44.36 0 0 0 842.84 0 L 798.48 0" fill="#005F6B"/><rect x="842.84" y="0" width="44.36" height="44.36" fill="#005F6B"/><path d="M 842.84 44.36 A 44.36 44.36 0 0 1  887.2 0 L 887.2 44.36" fill="#00B4CC"/><rect x="798.48" y="44.36" width="44.36" height="44.36" fill="#00DFFC"/><path d="M 798.48 44.36 A 44.36 44.36 0 0 1  842.84 88.72 L 798.48 44.36 A 44.36 44.36 0 0 0 842.84 88.72" fill="#005F6B"/><rect x="842.84" y="44.36" width="44.36" height="44.36" fill="#00B4CC"/><path d="M 842.84 44.36 A 44.36 44.36 0 0 0 887.2 88.72 L 887.2 44.36" fill="#00B4CC"/><rect x="887.2" y="0" width="88.72" height="88.72" fill="#005F6B"/><path d="M 887.2 88.72 A 88.72 88.72 0 0 0 975.9200000000001 0 L 887.2 0" fill="#005F6B"/><rect x="975.92" y="0" width="88.72" height="88.72" fill="#ffffff"/><rect x="975.92" y="0" width="44.36" height="44.36" fill="#343838"/><path d="M 975.92 44.36 A 44.36 44.36 0 0 0 1020.28 0 L 975.92 0" fill="#008C9E"/><rect x="1020.28" y="0" width="44.36" height="44.36" fill="#00B4CC"/><path d="M 1020.28 0 A 44.36 44.36 0 0 0 1064.6399999999999 44.36 L 1064.6399999999999 0" fill="#00DFFC"/><rect x="975.92" y="44.36" width="44.36" height="44.36" fill="#005F6B"/><path d="M 975.92 88.72 A 44.36 44.36 0 0 1  1020.28 44.36 L 1020.28 88.72" fill="#343838"/><rect x="1020.28" y="44.36" width="44.36" height="44.36" fill="#005F6B"/><path d="M 1020.28 88.72 A 44.36 44.36 0 0 1  1064.6399999999999 44.36 L 1020.28 88.72 A 44.36 44.36 0 0 0 1064.6399999999999 44.36" fill="#343838"/><rect x="1064.64" y="0" width="88.72" height="88.72" fill="#343838"/><path d="M 1064.64 0 A 88.72 88.72 0 0 0 1153.3600000000001 88.72 L 1153.3600000000001 0" fill="#00B4CC"/><rect x="0" y="88.72" width="88.72" height="88.72" fill="#00DFFC"/><path d="M 0 88.72 A 88.72 88.72 0 0 1 88.72 177.44 L 0 177.44" fill="#005F6B"/><rect x="88.72" y="88.72" width="88.72" height="88.72" fill="#343838"/><path d="M 88.72 88.72 A 88.72 88.72 0 0 1 177.44 177.44 L 88.72 177.44" fill="#008C9E"/><rect x="177.44" y="88.72" width="88.72" height="88.72" fill="#343838"/><path d="M 177.44 177.44 A 88.72 88.72 0 0 1  266.15999999999997 88.72 L 266.15999999999997 177.44" fill="#00DFFC"/><rect x="266.16" y="88.72" width="88.72" height="88.72" fill="#005F6B"/><path d="M 266.16 88.72 A 88.72 88.72 0 0 1 354.88 177.44 L 266.16 177.44" fill="#00B4CC"/><rect x="354.88" y="88.72" width="88.72" height="88.72" fill="#00B4CC"/><path d="M 354.88 88.72 A 88.72 88.72 0 0 1  443.6 177.44 L 354.88 88.72 A 88.72 88.72 0 0 0 443.6 177.44" fill="#005F6B"/><rect x="443.6" y="88.72" width="88.72" height="88.72" fill="#ffffff"/><rect x="443.6" y="88.72" width="44.36" height="44.36" fill="#008C9E"/><path d="M 443.6 88.72 A 44.36 44.36 0 0 0 487.96000000000004 133.07999999999998 L 487.96000000000004 88.72" fill="#00DFFC"/><rect x="487.96" y="88.72" width="44.36" height="44.36" fill="#343838"/><path d="M 487.96 133.07999999999998 A 44.36 44.36 0 0 1  532.3199999999999 88.72 L 487.96 133.07999999999998 A 44.36 44.36 0 0 0 532.3199999999999 88.72" fill="#00DFFC"/><rect x="443.6" y="133.08" width="44.36" height="44.36" fill="#008C9E"/><path d="M 443.6 133.08 A 44.36 44.36 0 0 1  487.96000000000004 177.44 L 443.6 133.08 A 44.36 44.36 0 0 0 487.96000000000004 177.44" fill="#008C9E"/><rect x="487.96" y="133.08" width="44.36" height="44.36" fill="#00B4CC"/><path d="M 487.96 133.08 A 44.36 44.36 0 0 1 532.3199999999999 177.44 L 487.96 177.44" fill="#008C9E"/><rect x="532.3199999999999" y="88.72" width="88.72" height="88.72" fill="#ffffff"/><rect x="532.32" y="88.72" width="44.36" height="44.36" fill="#00DFFC"/><path d="M 532.32 133.07999999999998 A 44.36 44.36 0 0 1  576.6800000000001 88.72 L 532.32 133.07999999999998 A 44.36 44.36 0 0 0 576.6800000000001 88.72" fill="#00DFFC"/><rect x="576.68" y="88.72" width="44.36" height="44.36" fill="#343838"/><path d="M 576.68 88.72 A 44.36 44.36 0 0 1 621.04 133.07999999999998 L 576.68 133.07999999999998" fill="#00B4CC"/><rect x="532.32" y="133.08" width="44.36" height="44.36" fill="#008C9E"/><path d="M 532.32 133.08 A 44.36 44.36 0 0 1  576.6800000000001 177.44 L 532.32 133.08 A 44.36 44.36 0 0 0 576.6800000000001 177.44" fill="#343838"/><rect x="576.68" y="133.08" width="44.36" height="44.36" fill="#343838"/><path d="M 576.68 177.44 A 44.36 44.36 0 0 1  621.04 133.08 L 621.04 177.44" fill="#343838"/><rect x="621.04" y="88.72" width="88.72" height="88.72" fill="#008C9E"/><path d="M 621.04 88.72 A 88.72 88.72 0 0 1  709.76 177.44 L 621.04 88.72 A 88.72 88.72 0 0 0 709.76 177.44" fill="#008C9E"/><rect x="709.76" y="88.72" width="88.72" height="88.72" fill="#00B4CC"/><path d="M 709.76 177.44 A 88.72 88.72 0 0 1  798.48 88.72 L 709.76 177.44 A 88.72 88.72 0 0 0 798.48 88.72" fill="#343838"/><rect x="798.48" y="88.72" width="88.72" height="88.72" fill="#343838"/><path d="M 798.48 177.44 A 88.72 88.72 0 0 1  887.2 88.72 L 887.2 177.44" fill="#00DFFC"/><rect x="887.2" y="88.72" width="88.72" height="88.72" fill="#ffffff"/><rect x="887.2" y="88.72" width="44.36" height="44.36" fill="#00B4CC"/><path d="M 887.2 88.72 A 44.36 44.36 0 0 0 931.5600000000001 133.07999999999998 L 931.5600000000001 88.72" fill="#00B4CC"/><rect x="931.56" y="88.72" width="44.36" height="44.36" fill="#008C9E"/><path d="M 931.56 133.07999999999998 A 44.36 44.36 0 0 1  975.92 88.72 L 975.92 133.07999999999998" fill="#005F6B"/><rect x="887.2" y="133.08" width="44.36" height="44.36" fill="#00B4CC"/><path d="M 887.2 133.08 A 44.36 44.36 0 0 1  931.5600000000001 177.44 L 887.2 133.08 A 44.36 44.36 0 0 0 931.5600000000001 177.44" fill="#343838"/><rect x="931.56" y="133.08" width="44.36" height="44.36" fill="#008C9E"/><path d="M 931.56 177.44 A 44.36 44.36 0 0 1  975.92 133.08 L 931.56 177.44 A 44.36 44.36 0 0 0 975.92 133.08" fill="#00B4CC"/><rect x="975.92" y="88.72" width="88.72" height="88.72" fill="#ffffff"/><rect x="975.92" y="88.72" width="44.36" height="44.36" fill="#00DFFC"/><path d="M 975.92 133.07999999999998 A 44.36 44.36 0 0 1  1020.28 88.72 L 975.92 133.07999999999998 A 44.36 44.36 0 0 0 1020.28 88.72" fill="#343838"/><rect x="1020.28" y="88.72" width="44.36" height="44.36" fill="#00B4CC"/><path d="M 1020.28 88.72 A 44.36 44.36 0 0 0 1064.6399999999999 133.07999999999998 L 1064.6399999999999 88.72" fill="#00DFFC"/><rect x="975.92" y="133.08" width="44.36" height="44.36" fill="#00DFFC"/><path d="M 975.92 177.44 A 44.36 44.36 0 0 1  1020.28 133.08 L 1020.28 177.44" fill="#005F6B"/><rect x="1020.28" y="133.08" width="44.36" height="44.36" fill="#343838"/><path d="M 1020.28 133.08 A 44.36 44.36 0 0 1  1064.6399999999999 177.44 L 1020.28 133.08 A 44.36 44.36 0 0 0 1064.6399999999999 177.44" fill="#00B4CC"/><rect x="1064.64" y="88.72" width="88.72" height="88.72" fill="#00B4CC"/><path d="M 1064.64 88.72 A 88.72 88.72 0 0 1 1153.3600000000001 177.44 L 1064.64 177.44" fill="#008C9E"/><rect x="0" y="177.44" width="88.72" height="88.72" fill="#00DFFC"/><path d="M 0 177.44 A 88.72 88.72 0 0 1 88.72 266.15999999999997 L 0 266.15999999999997" fill="#00DFFC"/><rect x="88.72" y="177.44" width="88.72" height="88.72" fill="#ffffff"/><rect x="88.72" y="177.44" width="44.36" height="44.36" fill="#005F6B"/><path d="M 88.72 221.8 A 44.36 44.36 0 0 1  133.07999999999998 177.44 L 133.07999999999998 221.8" fill="#00B4CC"/><rect x="133.08" y="177.44" width="44.36" height="44.36" fill="#008C9E"/><path d="M 133.08 221.8 A 44.36 44.36 0 0 1  177.44 177.44 L 133.08 221.8 A 44.36 44.36 0 0 0 177.44 177.44" fill="#008C9E"/><rect x="88.72" y="221.8" width="44.36" height="44.36" fill="#00DFFC"/><path d="M 88.72 266.16 A 44.36 44.36 0 0 1  133.07999999999998 221.8 L 133.07999999999998 266.16" fill="#343838"/><rect x="133.08" y="221.8" width="44.36" height="44.36" fill="#005F6B"/><path d="M 133.08 266.16 A 44.36 44.36 0 0 1  177.44 221.8 L 133.08 266.16 A 44.36 44.36 0 0 0 177.44 221.8" fill="#343838"/><rect x="177.44" y="177.44" width="88.72" height="88.72" fill="#343838"/><path d="M 177.44 177.44 A 88.72 88.72 0 0 1 266.15999999999997 266.15999999999997 L 177.44 266.15999999999997" fill="#005F6B"/><rect x="266.15999999999997" y="177.44" width="88.72" height="88.72" fill="#ffffff"/><rect x="266.16" y="177.44" width="44.36" height="44.36" fill="#00DFFC"/><path d="M 266.16 221.8 A 44.36 44.36 0 0 0 310.52000000000004 177.44 L 266.16 177.44" fill="#00DFFC"/><rect x="310.52" y="177.44" width="44.36" height="44.36" fill="#005F6B"/><path d="M 310.52 221.8 A 44.36 44.36 0 0 1  354.88 177.44 L 310.52 221.8 A 44.36 44.36 0 0 0 354.88 177.44" fill="#343838"/><rect x="266.16" y="221.8" width="44.36" height="44.36" fill="#00DFFC"/><path d="M 266.16 221.8 A 44.36 44.36 0 0 1 310.52000000000004 266.16 L 266.16 266.16" fill="#008C9E"/><rect x="310.52" y="221.8" width="44.36" height="44.36" fill="#00DFFC"/><path d="M 310.52 266.16 A 44.36 44.36 0 0 1  354.88 221.8 L 310.52 266.16 A 44.36 44.36 0 0 0 354.88 221.8" fill="#008C9E"/><rect x="354.88" y="177.44" width="88.72" height="88.72" fill="#ffffff"/><rect x="354.88" y="177.44" width="44.36" height="44.36" fill="#005F6B"/><path d="M 354.88 177.44 A 44.36 44.36 0 0 1  399.24 221.8 L 354.88 177.44 A 44.36 44.36 0 0 0 399.24 221.8" fill="#343838"/><rect x="399.24" y="177.44" width="44.36" height="44.36" fill="#00DFFC"/><path d="M 399.24 177.44 A 44.36 44.36 0 0 1  443.6 221.8 L 399.24 177.44 A 44.36 44.36 0 0 0 443.6 221.8" fill="#00B4CC"/><rect x="354.88" y="221.8" width="44.36" height="44.36" fill="#00DFFC"/><path d="M 354.88 266.16 A 44.36 44.36 0 0 1  399.24 221.8 L 354.88 266.16 A 44.36 44.36 0 0 0 399.24 221.8" fill="#00B4CC"/><rect x="399.24" y="221.8" width="44.36" height="44.36" fill="#00B4CC"/><path d="M 399.24 221.8 A 44.36 44.36 0 0 1 443.6 266.16 L 399.24 266.16" fill="#008C9E"/><rect x="443.6" y="177.44" width="88.72" height="88.72" fill="#ffffff"/><rect x="443.6" y="177.44" width="44.36" height="44.36" fill="#00B4CC"/><path d="M 443.6 177.44 A 44.36 44.36 0 0 0 487.96000000000004 221.8 L 487.96000000000004 177.44" fill="#005F6B"/><rect x="487.96" y="177.44" width="44.36" height="44.36" fill="#008C9E"/><path d="M 487.96 221.8 A 44.36 44.36 0 0 1  532.3199999999999 177.44 L 487.96 221.8 A 44.36 44.36 0 0 0 532.3199999999999 177.44" fill="#008C9E"/><rect x="443.6" y="221.8" width="44.36" height="44.36" fill="#00B4CC"/><path d="M 443.6 266.16 A 44.36 44.36 0 0 1  487.96000000000004 221.8 L 487.96000000000004 266.16" fill="#00B4CC"/><rect x="487.96" y="221.8" width="44.36" height="44.36" fill="#00DFFC"/><path d="M 487.96 221.8 A 44.36 44.36 0 0 1  532.3199999999999 266.16 L 487.96 221.8 A 44.36 44.36 0 0 0 532.3199999999999 266.16" fill="#343838"/><rect x="532.3199999999999" y="177.44" width="88.72" height="88.72" fill="#ffffff"/><rect x="532.32" y="177.44" width="44.36" height="44.36" fill="#00B4CC"/><path d="M 532.32 177.44 A 44.36 44.36 0 0 1 576.6800000000001 221.8 L 532.32 221.8" fill="#005F6B"/><rect x="576.68" y="177.44" width="44.36" height="44.36" fill="#008C9E"/><path d="M 576.68 177.44 A 44.36 44.36 0 0 1  621.04 221.8 L 576.68 177.44 A 44.36 44.36 0 0 0 621.04 221.8" fill="#00DFFC"/><rect x="532.32" y="221.8" width="44.36" height="44.36" fill="#343838"/><path d="M 532.32 221.8 A 44.36 44.36 0 0 1 576.6800000000001 266.16 L 532.32 266.16" fill="#00B4CC"/><rect x="576.68" y="221.8" width="44.36" height="44.36" fill="#008C9E"/><path d="M 576.68 266.16 A 44.36 44.36 0 0 0 621.04 221.8 L 576.68 221.8" fill="#00B4CC"/><rect x="621.04" y="177.44" width="88.72" height="88.72" fill="#00DFFC"/><path d="M 621.04 177.44 A 88.72 88.72 0 0 1  709.76 266.15999999999997 L 621.04 177.44 A 88.72 88.72 0 0 0 709.76 266.15999999999997" fill="#00DFFC"/><rect x="709.76" y="177.44" width="88.72" height="88.72" fill="#ffffff"/><rect x="709.76" y="177.44" width="44.36" height="44.36" fill="#343838"/><path d="M 709.76 177.44 A 44.36 44.36 0 0 1 754.12 221.8 L 709.76 221.8" fill="#00B4CC"/><rect x="754.12" y="177.44" width="44.36" height="44.36" fill="#008C9E"/><path d="M 754.12 177.44 A 44.36 44.36 0 0 0 798.48 221.8 L 798.48 177.44" fill="#00DFFC"/><rect x="709.76" y="221.8" width="44.36" height="44.36" fill="#00B4CC"/><path d="M 709.76 221.8 A 44.36 44.36 0 0 1  754.12 266.16 L 709.76 221.8 A 44.36 44.36 0 0 0 754.12 266.16" fill="#00B4CC"/><rect x="754.12" y="221.8" width="44.36" height="44.36" fill="#005F6B"/><path d="M 754.12 221.8 A 44.36 44.36 0 0 0 798.48 266.16 L 798.48 221.8" fill="#005F6B"/><rect x="798.48" y="177.44" width="88.72" height="88.72" fill="#00DFFC"/><path d="M 798.48 177.44 A 88.72 88.72 0 0 1 887.2 266.15999999999997 L 798.48 266.15999999999997" fill="#343838"/><rect x="887.2" y="177.44" width="88.72" height="88.72" fill="#ffffff"/><rect x="887.2" y="177.44" width="44.36" height="44.36" fill="#00DFFC"/><path d="M 887.2 177.44 A 44.36 44.36 0 0 0 931.5600000000001 221.8 L 931.5600000000001 177.44" fill="#00B4CC"/><rect x="931.56" y="177.44" width="44.36" height="44.36" fill="#00DFFC"/><path d="M 931.56 177.44 A 44.36 44.36 0 0 0 975.92 221.8 L 975.92 177.44" fill="#00B4CC"/><rect x="887.2" y="221.8" width="44.36" height="44.36" fill="#005F6B"/><path d="M 887.2 221.8 A 44.36 44.36 0 0 1  931.5600000000001 266.16 L 887.2 221.8 A 44.36 44.36 0 0 0 931.5600000000001 266.16" fill="#008C9E"/><rect x="931.56" y="221.8" width="44.36" height="44.36" fill="#00DFFC"/><path d="M 931.56 266.16 A 44.36 44.36 0 0 1  975.92 221.8 L 975.92 266.16" fill="#005F6B"/><rect x="975.92" y="177.44" width="88.72" height="88.72" fill="#ffffff"/><rect x="975.92" y="177.44" width="44.36" height="44.36" fill="#008C9E"/><path d="M 975.92 177.44 A 44.36 44.36 0 0 0 1020.28 221.8 L 1020.28 177.44" fill="#00B4CC"/><rect x="1020.28" y="177.44" width="44.36" height="44.36" fill="#343838"/><path d="M 1020.28 177.44 A 44.36 44.36 0 0 0 1064.6399999999999 221.8 L 1064.6399999999999 177.44" fill="#00B4CC"/><rect x="975.92" y="221.8" width="44.36" height="44.36" fill="#005F6B"/><path d="M 975.92 266.16 A 44.36 44.36 0 0 0 1020.28 221.8 L 975.92 221.8" fill="#00B4CC"/><rect x="1020.28" y="221.8" width="44.36" height="44.36" fill="#00B4CC"/><path d="M 1020.28 221.8 A 44.36 44.36 0 0 1 1064.6399999999999 266.16 L 1020.28 266.16" fill="#00B4CC"/><rect x="1064.6399999999999" y="177.44" width="88.72" height="88.72" fill="#ffffff"/><rect x="1064.64" y="177.44" width="44.36" height="44.36" fill="#343838"/><path d="M 1064.64 177.44 A 44.36 44.36 0 0 1  1109 221.8 L 1064.64 177.44 A 44.36 44.36 0 0 0 1109 221.8" fill="#005F6B"/><rect x="1109" y="177.44" width="44.36" height="44.36" fill="#00DFFC"/><path d="M 1109 221.8 A 44.36 44.36 0 0 0 1153.36 177.44 L 1109 177.44" fill="#00B4CC"/><rect x="1064.64" y="221.8" width="44.36" height="44.36" fill="#343838"/><path d="M 1064.64 266.16 A 44.36 44.36 0 0 0 1109 221.8 L 1064.64 221.8" fill="#00B4CC"/><rect x="1109" y="221.8" width="44.36" height="44.36" fill="#005F6B"/><path d="M 1109 221.8 A 44.36 44.36 0 0 0 1153.36 266.16 L 1153.36 221.8" fill="#005F6B"/><rect x="0" y="266.16" width="88.72" height="88.72" fill="#005F6B"/><path d="M 0 354.88 A 88.72 88.72 0 0 1  88.72 266.16 L 88.72 354.88" fill="#00B4CC"/><rect x="88.72" y="266.15999999999997" width="88.72" height="88.72" fill="#ffffff"/><rect x="88.72" y="266.16" width="44.36" height="44.36" fill="#008C9E"/><path d="M 88.72 266.16 A 44.36 44.36 0 0 0 133.07999999999998 310.52000000000004 L 133.07999999999998 266.16" fill="#00DFFC"/><rect x="133.08" y="266.16" width="44.36" height="44.36" fill="#00B4CC"/><path d="M 133.08 266.16 A 44.36 44.36 0 0 1  177.44 310.52000000000004 L 133.08 266.16 A 44.36 44.36 0 0 0 177.44 310.52000000000004" fill="#343838"/><rect x="88.72" y="310.52" width="44.36" height="44.36" fill="#00B4CC"/><path d="M 88.72 354.88 A 44.36 44.36 0 0 0 133.07999999999998 310.52 L 88.72 310.52" fill="#343838"/><rect x="133.08" y="310.52" width="44.36" height="44.36" fill="#005F6B"/><path d="M 133.08 310.52 A 44.36 44.36 0 0 0 177.44 354.88 L 177.44 310.52" fill="#008C9E"/><rect x="177.44" y="266.15999999999997" width="88.72" height="88.72" fill="#ffffff"/><rect x="177.44" y="266.16" width="44.36" height="44.36" fill="#00DFFC"/><path d="M 177.44 310.52000000000004 A 44.36 44.36 0 0 0 221.8 266.16 L 177.44 266.16" fill="#005F6B"/><rect x="221.8" y="266.16" width="44.36" height="44.36" fill="#008C9E"/><path d="M 221.8 266.16 A 44.36 44.36 0 0 0 266.16 310.52000000000004 L 266.16 266.16" fill="#008C9E"/><rect x="177.44" y="310.52" width="44.36" height="44.36" fill="#00DFFC"/><path d="M 177.44 310.52 A 44.36 44.36 0 0 1 221.8 354.88 L 177.44 354.88" fill="#00B4CC"/><rect x="221.8" y="310.52" width="44.36" height="44.36" fill="#005F6B"/><path d="M 221.8 310.52 A 44.36 44.36 0 0 1 266.16 354.88 L 221.8 354.88" fill="#005F6B"/><rect x="266.16" y="266.16" width="88.72" height="88.72" fill="#00B4CC"/><path d="M 266.16 266.16 A 88.72 88.72 0 0 0 354.88 354.88 L 354.88 266.16" fill="#00DFFC"/><rect x="354.88" y="266.15999999999997" width="88.72" height="88.72" fill="#ffffff"/><rect x="354.88" y="266.16" width="44.36" height="44.36" fill="#008C9E"/><path d="M 354.88 266.16 A 44.36 44.36 0 0 1  399.24 310.52000000000004 L 354.88 266.16 A 44.36 44.36 0 0 0 399.24 310.52000000000004" fill="#343838"/><rect x="399.24" y="266.16" width="44.36" height="44.36" fill="#343838"/><path d="M 399.24 310.52000000000004 A 44.36 44.36 0 0 0 443.6 266.16 L 399.24 266.16" fill="#343838"/><rect x="354.88" y="310.52" width="44.36" height="44.36" fill="#343838"/><path d="M 354.88 310.52 A 44.36 44.36 0 0 1 399.24 354.88 L 354.88 354.88" fill="#00DFFC"/><rect x="399.24" y="310.52" width="44.36" height="44.36" fill="#343838"/><path d="M 399.24 310.52 A 44.36 44.36 0 0 0 443.6 354.88 L 443.6 310.52" fill="#343838"/><rect x="443.6" y="266.15999999999997" width="88.72" height="88.72" fill="#ffffff"/><rect x="443.6" y="266.16" width="44.36" height="44.36" fill="#343838"/><path d="M 443.6 310.52000000000004 A 44.36 44.36 0 0 0 487.96000000000004 266.16 L 443.6 266.16" fill="#008C9E"/><rect x="487.96" y="266.16" width="44.36" height="44.36" fill="#343838"/><path d="M 487.96 266.16 A 44.36 44.36 0 0 0 532.3199999999999 310.52000000000004 L 532.3199999999999 266.16" fill="#00B4CC"/><rect x="443.6" y="310.52" width="44.36" height="44.36" fill="#00DFFC"/><path d="M 443.6 310.52 A 44.36 44.36 0 0 1 487.96000000000004 354.88 L 443.6 354.88" fill="#00B4CC"/><rect x="487.96" y="310.52" width="44.36" height="44.36" fill="#005F6B"/><path d="M 487.96 310.52 A 44.36 44.36 0 0 0 532.3199999999999 354.88 L 532.3199999999999 310.52" fill="#008C9E"/><rect x="532.32" y="266.16" width="88.72" height="88.72" fill="#008C9E"/><path d="M 532.32 266.16 A 88.72 88.72 0 0 1  621.0400000000001 354.88 L 532.32 266.16 A 88.72 88.72 0 0 0 621.0400000000001 354.88" fill="#00DFFC"/><rect x="621.04" y="266.16" width="88.72" height="88.72" fill="#343838"/><path d="M 621.04 266.16 A 88.72 88.72 0 0 1  709.76 354.88 L 621.04 266.16 A 88.72 88.72 0 0 0 709.76 354.88" fill="#00B4CC"/><rect x="709.76" y="266.16" width="88.72" height="88.72" fill="#00B4CC"/><path d="M 709.76 266.16 A 88.72 88.72 0 0 0 798.48 354.88 L 798.48 266.16" fill="#008C9E"/><rect x="798.48" y="266.15999999999997" width="88.72" height="88.72" fill="#ffffff"/><rect x="798.48" y="266.16" width="44.36" height="44.36" fill="#00DFFC"/><path d="M 798.48 266.16 A 44.36 44.36 0 0 1 842.84 310.52000000000004 L 798.48 310.52000000000004" fill="#00B4CC"/><rect x="842.84" y="266.16" width="44.36" height="44.36" fill="#008C9E"/><path d="M 842.84 266.16 A 44.36 44.36 0 0 0 887.2 310.52000000000004 L 887.2 266.16" fill="#008C9E"/><rect x="798.48" y="310.52" width="44.36" height="44.36" fill="#343838"/><path d="M 798.48 310.52 A 44.36 44.36 0 0 1 842.84 354.88 L 798.48 354.88" fill="#00DFFC"/><rect x="842.84" y="310.52" width="44.36" height="44.36" fill="#00B4CC"/><path d="M 842.84 354.88 A 44.36 44.36 0 0 0 887.2 310.52 L 842.84 310.52" fill="#008C9E"/><rect x="887.2" y="266.15999999999997" width="88.72" height="88.72" fill="#ffffff"/><rect x="887.2" y="266.16" width="44.36" height="44.36" fill="#008C9E"/><path d="M 887.2 266.16 A 44.36 44.36 0 0 1 931.5600000000001 310.52000000000004 L 887.2 310.52000000000004" fill="#00DFFC"/><rect x="931.56" y="266.16" width="44.36" height="44.36" fill="#00DFFC"/><path d="M 931.56 310.52000000000004 A 44.36 44.36 0 0 1  975.92 266.16 L 975.92 310.52000000000004" fill="#00B4CC"/><rect x="887.2" y="310.52" width="44.36" height="44.36" fill="#343838"/><path d="M 887.2 354.88 A 44.36 44.36 0 0 1  931.5600000000001 310.52 L 887.2 354.88 A 44.36 44.36 0 0 0 931.5600000000001 310.52" fill="#005F6B"/><rect x="931.56" y="310.52" width="44.36" height="44.36" fill="#005F6B"/><path d="M 931.56 310.52 A 44.36 44.36 0 0 1  975.92 354.88 L 931.56 310.52 A 44.36 44.36 0 0 0 975.92 354.88" fill="#343838"/><rect x="975.92" y="266.15999999999997" width="88.72" height="88.72" fill="#ffffff"/><rect x="975.92" y="266.16" width="44.36" height="44.36" fill="#343838"/><path d="M 975.92 310.52000000000004 A 44.36 44.36 0 0 1  1020.28 266.16 L 1020.28 310.52000000000004" fill="#00DFFC"/><rect x="1020.28" y="266.16" width="44.36" height="44.36" fill="#005F6B"/><path d="M 1020.28 266.16 A 44.36 44.36 0 0 0 1064.6399999999999 310.52000000000004 L 1064.6399999999999 266.16" fill="#005F6B"/><rect x="975.92" y="310.52" width="44.36" height="44.36" fill="#343838"/><path d="M 975.92 354.88 A 44.36 44.36 0 0 1  1020.28 310.52 L 1020.28 354.88" fill="#005F6B"/><rect x="1020.28" y="310.52" width="44.36" height="44.36" fill="#00B4CC"/><path d="M 1020.28 310.52 A 44.36 44.36 0 0 1  1064.6399999999999 354.88 L 1020.28 310.52 A 44.36 44.36 0 0 0 1064.6399999999999 354.88" fill="#00DFFC"/><rect x="1064.64" y="266.16" width="88.72" height="88.72" fill="#008C9E"/><path d="M 1064.64 354.88 A 88.72 88.72 0 0 0 1153.3600000000001 266.16 L 1064.64 266.16" fill="#00DFFC"/><rect x="0" y="354.88" width="88.72" height="88.72" fill="#ffffff"/><rect x="0" y="354.88" width="44.36" height="44.36" fill="#00DFFC"/><path d="M 0 354.88 A 44.36 44.36 0 0 1 44.36 399.24 L 0 399.24" fill="#005F6B"/><rect x="44.36" y="354.88" width="44.36" height="44.36" fill="#005F6B"/><path d="M 44.36 399.24 A 44.36 44.36 0 0 1  88.72 354.88 L 88.72 399.24" fill="#00DFFC"/><rect x="0" y="399.24" width="44.36" height="44.36" fill="#343838"/><path d="M 0 399.24 A 44.36 44.36 0 0 0 44.36 443.6 L 44.36 399.24" fill="#008C9E"/><rect x="44.36" y="399.24" width="44.36" height="44.36" fill="#005F6B"/><path d="M 44.36 443.6 A 44.36 44.36 0 0 1  88.72 399.24 L 44.36 443.6 A 44.36 44.36 0 0 0 88.72 399.24" fill="#008C9E"/><rect x="88.72" y="354.88" width="88.72" height="88.72" fill="#343838"/><path d="M 88.72 354.88 A 88.72 88.72 0 0 0 177.44 443.6 L 177.44 354.88" fill="#00B4CC"/><rect x="177.44" y="354.88" width="88.72" height="88.72" fill="#00DFFC"/><path d="M 177.44 354.88 A 88.72 88.72 0 0 1 266.15999999999997 443.6 L 177.44 443.6" fill="#008C9E"/><rect x="266.16" y="354.88" width="88.72" height="88.72" fill="#00DFFC"/><path d="M 266.16 443.6 A 88.72 88.72 0 0 1  354.88 354.88 L 354.88 443.6" fill="#005F6B"/><rect x="354.88" y="354.88" width="88.72" height="88.72" fill="#ffffff"/><rect x="354.88" y="354.88" width="44.36" height="44.36" fill="#005F6B"/><path d="M 354.88 354.88 A 44.36 44.36 0 0 1  399.24 399.24 L 354.88 354.88 A 44.36 44.36 0 0 0 399.24 399.24" fill="#005F6B"/><rect x="399.24" y="354.88" width="44.36" height="44.36" fill="#00DFFC"/><path d="M 399.24 399.24 A 44.36 44.36 0 0 0 443.6 354.88 L 399.24 354.88" fill="#343838"/><rect x="354.88" y="399.24" width="44.36" height="44.36" fill="#005F6B"/><path d="M 354.88 443.6 A 44.36 44.36 0 0 1  399.24 399.24 L 399.24 443.6" fill="#00B4CC"/><rect x="399.24" y="399.24" width="44.36" height="44.36" fill="#00DFFC"/><path d="M 399.24 399.24 A 44.36 44.36 0 0 1  443.6 443.6 L 399.24 399.24 A 44.36 44.36 0 0 0 443.6 443.6" fill="#008C9E"/><rect x="443.6" y="354.88" width="88.72" height="88.72" fill="#ffffff"/><rect x="443.6" y="354.88" width="44.36" height="44.36" fill="#00DFFC"/><path d="M 443.6 354.88 A 44.36 44.36 0 0 0 487.96000000000004 399.24 L 487.96000000000004 354.88" fill="#00DFFC"/><rect x="487.96" y="354.88" width="44.36" height="44.36" fill="#00DFFC"/><path d="M 487.96 399.24 A 44.36 44.36 0 0 1  532.3199999999999 354.88 L 487.96 399.24 A 44.36 44.36 0 0 0 532.3199999999999 354.88" fill="#343838"/><rect x="443.6" y="399.24" width="44.36" height="44.36" fill="#00DFFC"/><path d="M 443.6 443.6 A 44.36 44.36 0 0 0 487.96000000000004 399.24 L 443.6 399.24" fill="#00B4CC"/><rect x="487.96" y="399.24" width="44.36" height="44.36" fill="#00B4CC"/><path d="M 487.96 443.6 A 44.36 44.36 0 0 0 532.3199999999999 399.24 L 487.96 399.24" fill="#343838"/><rect x="532.3199999999999" y="354.88" width="88.72" height="88.72" fill="#ffffff"/><rect x="532.32" y="354.88" width="44.36" height="44.36" fill="#00B4CC"/><path d="M 532.32 399.24 A 44.36 44.36 0 0 1  576.6800000000001 354.88 L 576.6800000000001 399.24" fill="#00B4CC"/><rect x="576.68" y="354.88" width="44.36" height="44.36" fill="#005F6B"/><path d="M 576.68 354.88 A 44.36 44.36 0 0 1  621.04 399.24 L 576.68 354.88 A 44.36 44.36 0 0 0 621.04 399.24" fill="#008C9E"/><rect x="532.32" y="399.24" width="44.36" height="44.36" fill="#343838"/><path d="M 532.32 443.6 A 44.36 44.36 0 0 1  576.6800000000001 399.24 L 532.32 443.6 A 44.36 44.36 0 0 0 576.6800000000001 399.24" fill="#343838"/><rect x="576.68" y="399.24" width="44.36" height="44.36" fill="#00DFFC"/><path d="M 576.68 443.6 A 44.36 44.36 0 0 1  621.04 399.24 L 621.04 443.6" fill="#005F6B"/><rect x="621.04" y="354.88" width="88.72" height="88.72" fill="#ffffff"/><rect x="621.04" y="354.88" width="44.36" height="44.36" fill="#343838"/><path d="M 621.04 399.24 A 44.36 44.36 0 0 1  665.4 354.88 L 665.4 399.24" fill="#00DFFC"/><rect x="665.4" y="354.88" width="44.36" height="44.36" fill="#005F6B"/><path d="M 665.4 354.88 A 44.36 44.36 0 0 1  709.76 399.24 L 665.4 354.88 A 44.36 44.36 0 0 0 709.76 399.24" fill="#343838"/><rect x="621.04" y="399.24" width="44.36" height="44.36" fill="#343838"/><path d="M 621.04 399.24 A 44.36 44.36 0 0 0 665.4 443.6 L 665.4 399.24" fill="#005F6B"/><rect x="665.4" y="399.24" width="44.36" height="44.36" fill="#005F6B"/><path d="M 665.4 443.6 A 44.36 44.36 0 0 1  709.76 399.24 L 665.4 443.6 A 44.36 44.36 0 0 0 709.76 399.24" fill="#00DFFC"/><rect x="709.76" y="354.88" width="88.72" height="88.72" fill="#ffffff"/><rect x="709.76" y="354.88" width="44.36" height="44.36" fill="#00B4CC"/><path d="M 709.76 354.88 A 44.36 44.36 0 0 1 754.12 399.24 L 709.76 399.24" fill="#005F6B"/><rect x="754.12" y="354.88" width="44.36" height="44.36" fill="#005F6B"/><path d="M 754.12 399.24 A 44.36 44.36 0 0 1  798.48 354.88 L 798.48 399.24" fill="#005F6B"/><rect x="709.76" y="399.24" width="44.36" height="44.36" fill="#00DFFC"/><path d="M 709.76 443.6 A 44.36 44.36 0 0 0 754.12 399.24 L 709.76 399.24" fill="#005F6B"/><rect x="754.12" y="399.24" width="44.36" height="44.36" fill="#005F6B"/><path d="M 754.12 399.24 A 44.36 44.36 0 0 1 798.48 443.6 L 754.12 443.6" fill="#343838"/><rect x="798.48" y="354.88" width="88.72" height="88.72" fill="#005F6B"/><path d="M 798.48 354.88 A 88.72 88.72 0 0 1  887.2 443.6 L 798.48 354.88 A 88.72 88.72 0 0 0 887.2 443.6" fill="#005F6B"/><rect x="887.2" y="354.88" width="88.72" height="88.72" fill="#ffffff"/><rect x="887.2" y="354.88" width="44.36" height="44.36" fill="#008C9E"/><path d="M 887.2 399.24 A 44.36 44.36 0 0 1  931.5600000000001 354.88 L 887.2 399.24 A 44.36 44.36 0 0 0 931.5600000000001 354.88" fill="#00B4CC"/><rect x="931.56" y="354.88" width="44.36" height="44.36" fill="#005F6B"/><path d="M 931.56 399.24 A 44.36 44.36 0 0 0 975.92 354.88 L 931.56 354.88" fill="#343838"/><rect x="887.2" y="399.24" width="44.36" height="44.36" fill="#005F6B"/><path d="M 887.2 399.24 A 44.36 44.36 0 0 1  931.5600000000001 443.6 L 887.2 399.24 A 44.36 44.36 0 0 0 931.5600000000001 443.6" fill="#00DFFC"/><rect x="931.56" y="399.24" width="44.36" height="44.36" fill="#005F6B"/><path d="M 931.56 443.6 A 44.36 44.36 0 0 0 975.92 399.24 L 931.56 399.24" fill="#00DFFC"/><rect x="975.92" y="354.88" width="88.72" height="88.72" fill="#005F6B"/><path d="M 975.92 443.6 A 88.72 88.72 0 0 1  1064.6399999999999 354.88 L 1064.6399999999999 443.6" fill="#005F6B"/><rect x="1064.6399999999999" y="354.88" width="88.72" height="88.72" fill="#ffffff"/><rect x="1064.64" y="354.88" width="44.36" height="44.36" fill="#008C9E"/><path d="M 1064.64 354.88 A 44.36 44.36 0 0 1  1109 399.24 L 1064.64 354.88 A 44.36 44.36 0 0 0 1109 399.24" fill="#005F6B"/><rect x="1109" y="354.88" width="44.36" height="44.36" fill="#008C9E"/><path d="M 1109 399.24 A 44.36 44.36 0 0 1  1153.36 354.88 L 1153.36 399.24" fill="#00DFFC"/><rect x="1064.64" y="399.24" width="44.36" height="44.36" fill="#00DFFC"/><path d="M 1064.64 443.6 A 44.36 44.36 0 0 1  1109 399.24 L 1064.64 443.6 A 44.36 44.36 0 0 0 1109 399.24" fill="#00DFFC"/><rect x="1109" y="399.24" width="44.36" height="44.36" fill="#008C9E"/><path d="M 1109 399.24 A 44.36 44.36 0 0 1  1153.36 443.6 L 1109 399.24 A 44.36 44.36 0 0 0 1153.36 443.6" fill="#008C9E"/></g></svg>