<?xml version="1.0" standalone="no"?><svg xmlns:xlink="http://www.w3.org/1999/xlink" xmlns="http://www.w3.org/2000/svg" viewBox="0 0 1000 700.0014202012584" preserveAspectRatio="xMaxYMax slice"><g transform="scale(1.578001398109239)"><rect x="0" y="0" width="633.7142857142858" height="443.6" fill="#ffffff"/><path d="M 63.37 63.37 A 63.37 63.37 0 0 1  126.74 126.74 L 63.37 63.37 A 63.37 63.37 0 0 0 126.74 126.74" fill="#7bfce7"/><rect x="253.4857142857143" y="63.371428571428574" width="63.371428571428574" height="63.371428571428574" fill="#ffffff"/><path d="M 506.97 126.74 A 63.37 63.37 0 0 1  570.34 63.37 L 506.97 126.74 A 63.37 63.37 0 0 0 570.34 63.37" fill="#55fbe0"/><rect x="570.3428571428572" y="63.371428571428574" width="63.371428571428574" height="63.371428571428574" fill="#ffffff"/><path d="M 570.34 95.06 A 31.69 31.69 0 0 1  602.0300000000001 126.75 L 570.34 95.06 A 31.69 31.69 0 0 0 602.0300000000001 126.75" fill="#cdfef6"/><path d="M 190.11 190.10999999999999 A 63.37 63.37 0 0 1  253.48000000000002 126.74 L 190.11 190.10999999999999 A 63.37 63.37 0 0 0 253.48000000000002 126.74" fill="#09a1fa"/><rect x="380.22857142857146" y="126.74285714285715" width="63.371428571428574" height="63.371428571428574" fill="#ffffff"/><path d="M 380.23 126.74 A 31.69 31.69 0 0 1  411.92 158.43 L 380.23 126.74 A 31.69 31.69 0 0 0 411.92 158.43" fill="#d5fef7"/><path d="M 443.6 190.10999999999999 A 63.37 63.37 0 0 1  506.97 126.74 L 443.6 190.10999999999999 A 63.37 63.37 0 0 0 506.97 126.74" fill="#f9fffe"/><rect x="0" y="190.11428571428573" width="63.371428571428574" height="63.371428571428574" fill="#ffffff"/><path d="M 31.69 253.49 A 31.69 31.69 0 0 1  63.38 221.8 L 31.69 253.49 A 31.69 31.69 0 0 0 63.38 221.8" fill="#9dfded"/><rect x="126.74285714285715" y="190.11428571428573" width="63.371428571428574" height="63.371428571428574" fill="#ffffff"/><path d="M 126.74 190.11 A 31.69 31.69 0 0 1  158.43 221.8 L 126.74 190.11 A 31.69 31.69 0 0 0 158.43 221.8" fill="#58c0fc"/><path d="M 316.86 190.11 A 63.37 63.37 0 0 1  380.23 253.48000000000002 L 316.86 190.11 A 63.37 63.37 0 0 0 380.23 253.48000000000002" fill="#d4fef7"/><path d="M 443.6 253.48000000000002 A 63.37 63.37 0 0 1  506.97 190.11 L 443.6 253.48000000000002 A 63.37 63.37 0 0 0 506.97 190.11" fill="#87d1fd"/><path d="M 570.34 253.48000000000002 A 63.37 63.37 0 0 1  633.71 190.11 L 570.34 253.48000000000002 A 63.37 63.37 0 0 0 633.71 190.11" fill="#66fce3"/><rect x="63.371428571428574" y="253.4857142857143" width="63.371428571428574" height="63.371428571428574" fill="#ffffff"/><path d="M 63.37 253.49 A 31.69 31.69 0 0 1  95.06 285.18 L 63.37 253.49 A 31.69 31.69 0 0 0 95.06 285.18" fill="#65fbe3"/><path d="M 95.06 253.49 A 31.69 31.69 0 0 1  126.75 285.18 L 95.06 253.49 A 31.69 31.69 0 0 0 126.75 285.18" fill="#c3fef4"/><path d="M 63.37 316.86 A 31.69 31.69 0 0 1  95.06 285.17 L 63.37 316.86 A 31.69 31.69 0 0 0 95.06 285.17" fill="#c8eafe"/><path d="M 95.06 316.86 A 31.69 31.69 0 0 1  126.75 285.17 L 95.06 316.86 A 31.69 31.69 0 0 0 126.75 285.17" fill="#d3eefe"/><rect x="190.11428571428573" y="253.4857142857143" width="63.371428571428574" height="63.371428571428574" fill="#ffffff"/><path d="M 190.11 253.49 A 31.69 31.69 0 0 1  221.8 285.18 L 190.11 253.49 A 31.69 31.69 0 0 0 221.8 285.18" fill="#57fbe0"/><path d="M 253.49 253.49 A 63.37 63.37 0 0 1  316.86 316.86 L 253.49 253.49 A 63.37 63.37 0 0 0 316.86 316.86" fill="#88d2fd"/><path d="M 316.86 316.86 A 63.37 63.37 0 0 1  380.23 253.49 L 316.86 316.86 A 63.37 63.37 0 0 0 380.23 253.49" fill="#72fce5"/><path d="M 380.23 316.86 A 63.37 63.37 0 0 1  443.6 253.49 L 380.23 316.86 A 63.37 63.37 0 0 0 443.6 253.49" fill="#c8fef5"/><rect x="443.6" y="253.4857142857143" width="63.371428571428574" height="63.371428571428574" fill="#ffffff"/><path d="M 443.6 285.17 A 31.69 31.69 0 0 1  475.29 316.86 L 443.6 285.17 A 31.69 31.69 0 0 0 475.29 316.86" fill="#aee0fd"/><path d="M 475.29 316.86 A 31.69 31.69 0 0 1  506.98 285.17 L 475.29 316.86 A 31.69 31.69 0 0 0 506.98 285.17" fill="#99fdec"/><path d="M 0 316.86 A 63.37 63.37 0 0 1  63.37 380.23 L 0 316.86 A 63.37 63.37 0 0 0 63.37 380.23" fill="#e0f3fe"/><path d="M 63.37 380.23 A 63.37 63.37 0 0 1  126.74 316.86 L 63.37 380.23 A 63.37 63.37 0 0 0 126.74 316.86" fill="#8bfcea"/><rect x="190.11428571428573" y="316.8571428571429" width="63.371428571428574" height="63.371428571428574" fill="#ffffff"/><path d="M 190.11 316.86 A 31.69 31.69 0 0 1  221.8 348.55 L 190.11 316.86 A 31.69 31.69 0 0 0 221.8 348.55" fill="#a4fdee"/><path d="M 221.8 348.54 A 31.69 31.69 0 0 1  253.49 380.23 L 221.8 348.54 A 31.69 31.69 0 0 0 253.49 380.23" fill="#9afded"/><rect x="253.4857142857143" y="316.8571428571429" width="63.371428571428574" height="63.371428571428574" fill="#ffffff"/><path d="M 253.49 348.55 A 31.69 31.69 0 0 1  285.18 316.86 L 253.49 348.55 A 31.69 31.69 0 0 0 285.18 316.86" fill="#bcfdf3"/><path d="M 285.17 348.55 A 31.69 31.69 0 0 1  316.86 316.86 L 285.17 348.55 A 31.69 31.69 0 0 0 316.86 316.86" fill="#e2f4fe"/><path d="M 253.49 380.23 A 31.69 31.69 0 0 1  285.18 348.54 L 253.49 380.23 A 31.69 31.69 0 0 0 285.18 348.54" fill="#8cfcea"/><path d="M 285.17 380.23 A 31.69 31.69 0 0 1  316.86 348.54 L 285.17 380.23 A 31.69 31.69 0 0 0 316.86 348.54" fill="#d7fef8"/><rect x="316.8571428571429" y="316.8571428571429" width="63.371428571428574" height="63.371428571428574" fill="#ffffff"/><path d="M 316.86 348.55 A 31.69 31.69 0 0 1  348.55 316.86 L 316.86 348.55 A 31.69 31.69 0 0 0 348.55 316.86" fill="#dcfef9"/><path d="M 348.54 316.86 A 31.69 31.69 0 0 1  380.23 348.55 L 348.54 316.86 A 31.69 31.69 0 0 0 380.23 348.55" fill="#6cc7fc"/><path d="M 316.86 348.54 A 31.69 31.69 0 0 1  348.55 380.23 L 316.86 348.54 A 31.69 31.69 0 0 0 348.55 380.23" fill="#c7eafe"/><path d="M 348.54 380.23 A 31.69 31.69 0 0 1  380.23 348.54 L 348.54 380.23 A 31.69 31.69 0 0 0 380.23 348.54" fill="#79ccfc"/><path d="M 380.23 380.23 A 63.37 63.37 0 0 1  443.6 316.86 L 380.23 380.23 A 63.37 63.37 0 0 0 443.6 316.86" fill="#f1fffc"/><rect x="506.9714285714286" y="316.8571428571429" width="63.371428571428574" height="63.371428571428574" fill="#ffffff"/><path d="M 506.97 316.86 A 31.69 31.69 0 0 1  538.6600000000001 348.55 L 506.97 316.86 A 31.69 31.69 0 0 0 538.6600000000001 348.55" fill="#a6fdef"/><path d="M 538.66 316.86 A 31.69 31.69 0 0 1  570.35 348.55 L 538.66 316.86 A 31.69 31.69 0 0 0 570.35 348.55" fill="#a4fdee"/><path d="M 506.97 348.54 A 31.69 31.69 0 0 1  538.6600000000001 380.23 L 506.97 348.54 A 31.69 31.69 0 0 0 538.6600000000001 380.23" fill="#fbfeff"/><path d="M 538.66 348.54 A 31.69 31.69 0 0 1  570.35 380.23 L 538.66 348.54 A 31.69 31.69 0 0 0 570.35 380.23" fill="#92fdeb"/><path d="M 570.34 316.86 A 63.37 63.37 0 0 1  633.71 380.23 L 570.34 316.86 A 63.37 63.37 0 0 0 633.71 380.23" fill="#67c5fc"/><rect x="0" y="380.22857142857146" width="63.371428571428574" height="63.371428571428574" fill="#ffffff"/><path d="M 0 411.92 A 31.69 31.69 0 0 1  31.69 380.23 L 0 411.92 A 31.69 31.69 0 0 0 31.69 380.23" fill="#a6fdef"/><path d="M 31.69 411.92 A 31.69 31.69 0 0 1  63.38 380.23 L 31.69 411.92 A 31.69 31.69 0 0 0 63.38 380.23" fill="#c5e9fe"/><path d="M 0 443.6 A 31.69 31.69 0 0 1  31.69 411.91 L 0 443.6 A 31.69 31.69 0 0 0 31.69 411.91" fill="#dbfef8"/><path d="M 31.69 443.6 A 31.69 31.69 0 0 1  63.38 411.91 L 31.69 443.6 A 31.69 31.69 0 0 0 63.38 411.91" fill="#a6ddfd"/><path d="M 63.37 443.6 A 63.37 63.37 0 0 1  126.74 380.23 L 63.37 443.6 A 63.37 63.37 0 0 0 126.74 380.23" fill="#d4effe"/><path d="M 126.74 443.6 A 63.37 63.37 0 0 1  190.10999999999999 380.23 L 126.74 443.6 A 63.37 63.37 0 0 0 190.10999999999999 380.23" fill="#87fce9"/><rect x="190.11428571428573" y="380.22857142857146" width="63.371428571428574" height="63.371428571428574" fill="#ffffff"/><path d="M 190.11 380.23 A 31.69 31.69 0 0 1  221.8 411.92 L 190.11 380.23 A 31.69 31.69 0 0 0 221.8 411.92" fill="#9ddafd"/><path d="M 221.8 380.23 A 31.69 31.69 0 0 1  253.49 411.92 L 221.8 380.23 A 31.69 31.69 0 0 0 253.49 411.92" fill="#d3fef7"/><path d="M 190.11 443.6 A 31.69 31.69 0 0 1  221.8 411.91 L 190.11 443.6 A 31.69 31.69 0 0 0 221.8 411.91" fill="#bcfdf3"/><path d="M 221.8 443.6 A 31.69 31.69 0 0 1  253.49 411.91 L 221.8 443.6 A 31.69 31.69 0 0 0 253.49 411.91" fill="#77fce6"/><path d="M 253.49 443.6 A 63.37 63.37 0 0 1  316.86 380.23 L 253.49 443.6 A 63.37 63.37 0 0 0 316.86 380.23" fill="#80fce8"/><path d="M 316.86 380.23 A 63.37 63.37 0 0 1  380.23 443.6 L 316.86 380.23 A 63.37 63.37 0 0 0 380.23 443.6" fill="#91fdeb"/><path d="M 380.23 443.6 A 63.37 63.37 0 0 1  443.6 380.23 L 380.23 443.6 A 63.37 63.37 0 0 0 443.6 380.23" fill="#68fce3"/><rect x="443.6" y="380.22857142857146" width="63.371428571428574" height="63.371428571428574" fill="#ffffff"/><path d="M 443.6 380.23 A 31.69 31.69 0 0 1  475.29 411.92 L 443.6 380.23 A 31.69 31.69 0 0 0 475.29 411.92" fill="#6cc7fc"/><path d="M 475.29 411.92 A 31.69 31.69 0 0 1  506.98 380.23 L 475.29 411.92 A 31.69 31.69 0 0 0 506.98 380.23" fill="#a9fdef"/><path d="M 443.6 443.6 A 31.69 31.69 0 0 1  475.29 411.91 L 443.6 443.6 A 31.69 31.69 0 0 0 475.29 411.91" fill="#a6fdef"/><path d="M 475.29 411.91 A 31.69 31.69 0 0 1  506.98 443.6 L 475.29 411.91 A 31.69 31.69 0 0 0 506.98 443.6" fill="#74fce6"/><path d="M 506.97 380.23 A 63.37 63.37 0 0 1  570.34 443.6 L 506.97 380.23 A 63.37 63.37 0 0 0 570.34 443.6" fill="#039ffa"/><path d="M 570.34 380.23 A 63.37 63.37 0 0 1  633.71 443.6 L 570.34 380.23 A 63.37 63.37 0 0 0 633.71 443.6" fill="#62fbe3"/></g></svg>